<svg xmlns="http://www.w3.org/2000/svg"
     viewBox="0 0 200 105.84019704918745">
    <defs id="SvgjsDefs7599">
        <linearGradient id="SvgjsLinearGradient7604">
            <stop id="SvgjsStop7605" stop-color="#2d388a" offset="0"></stop>
            <stop id="SvgjsStop7606" stop-color="#00aeef" offset="1"></stop>
        </linearGradient>
    </defs>
    <g id="SvgjsG7600"
       transform="matrix(2.9604012966156006,0,0,2.9604012966156006,-2.0821352129685593,-35.5598595191697)"
       fill="url(#SvgjsLinearGradient7604)">
        <path d="M10.918 12.012 c3.9063 0 6.3672 1.2174 7.3828 3.6523 c0.28646 0.59896 0.42969 0.99609 0.42969 1.1914 l-2.4609 0 l0 0.74219 l2.6367 0 l0 -0.039063 c0 -0.13021 -0.058594 -0.36459 -0.17578 -0.70313 l4.5117 0 l0 0.74219 l-4.2773 0 l0 0.058594 c0.22135 1.0417 0.3776 2.168 0.46875 3.3789 c0 0.065098 -1.7122 0.18879 -5.1367 0.37107 l0 -0.039063 c0 -3.1119 -1.0677 -4.668 -3.2031 -4.668 l-0.54688 0 c-1.6016 0 -2.5781 0.67709 -2.9297 2.0313 c-0.28646 1.1458 -0.42969 2.6498 -0.42969 4.5117 l0 3.8086 l-0.039063 0.56641 l-1.7773 0 l0 0.89844 l1.7773 0 l0 6.7773 l7.5391 0 l0 -7.0508 l4.3164 0 l0 7.0508 l-2.4023 0 l0 4.3359 l-5.0195 0 l0 0.37109 l-3.9063 0 l0 -0.37109 l-3.9648 0 l0 -2.168 l2.6367 0 l0 -0.9375 l-3.9453 0 l0 -3.2031 l-1.6992 0 l0 -3.9453 l0.89844 0 c-0.039063 -1.6406 -0.058594 -2.9297 -0.058594 -3.8672 c0 -4.2578 0.20834 -6.94 0.625 -8.0469 c0.3776 -1.276 1.0026 -2.3764 1.875 -3.3008 c1.5495 -1.4323 3.8412 -2.1484 6.875 -2.1484 z M7.5195 33.8867 l0.23438 0 l0 0.97656 l0.56641 0 l0 0.29297 l-0.80078 0 c-0.05209 0 -0.078125 -0.032559 -0.078125 -0.097656 l0 -1.0742 c0 -0.065098 0.026035 -0.097656 0.078125 -0.097656 z M13.398 33.8867 l0.29299 0.000019073 c0.15625 0.13021 0.23438 0.25391 0.23438 0.37109 c0.026035 0 0.13672 -0.12369 0.33203 -0.37109 l0.23438 0 l0 0.097656 c-0.22135 0.28646 -0.33203 0.48828 -0.33203 0.60547 c0.039063 0 0.16275 0.16928 0.37109 0.50781 l0 0.058594 l-0.27344 0 l-0.33203 -0.37109 c-0.11719 0.22135 -0.20834 0.34504 -0.27344 0.37107 l-0.29297 0 c0.065098 -0.13021 0.20832 -0.35156 0.42967 -0.66406 l-0.39063 -0.56641 l0 -0.039063 z M17.266 35.5859 c0.3125 0.078125 0.46875 0.16926 0.46875 0.27342 l0 0.19531 l-0.19531 0 l-0.17578 -0.19531 l-0.19531 0 c-0.065098 0.013027 -0.097656 0.045586 -0.097656 0.097676 l0 0.097656 c0.48178 0.091152 0.72266 0.19531 0.72266 0.3125 l0 0.15625 c0 0.2474 -0.14322 0.37109 -0.42969 0.37109 l-0.19531 0 c-0.16928 0 -0.306 -0.091152 -0.41016 -0.27344 l0 -0.19531 l0.27344 0 c0 0.15625 0.091152 0.23438 0.27344 0.23438 l0.058594 0 c0.039063 0 0.084629 -0.045566 0.13672 -0.13672 c0 -0.039063 -0.22135 -0.14975 -0.66406 -0.33203 l-0.039063 -0.097656 l0 -0.23438 c0 -0.10416 0.15625 -0.19531 0.46875 -0.27344 z M22.07029375 12.030999999999999 l8.4961 0 c3.5547 0 6.0025 1.2044 7.3438 3.6133 c1.1198 1.888 1.6797 5.0064 1.6797 9.3555 l0.83984 0 l0 6.6797 l-8.2617 0 l0 -0.74219 l2.5781 0 l0 -5.9375 l-0.74219 0 l0 -2.4414 c0 -2.7475 -0.61197 -4.4986 -1.8359 -5.2539 c-0.72916 -0.41666 -1.888 -0.625 -3.4766 -0.625 l-1.1328 0 l0 8.1836 l0.76172 0 l0 6.8164 l-5.6055 0 l0 -6.2891 l-0.64453 0 l0 -13.359 z M34.14059375 29.609 l0.27344 0 l0 0.70313 l0.15625 0 l0 0.23438 l-0.15625 0 l0 0.29297 l-0.27344 0 l0 -0.29297 l-0.50781 0 l0 -0.17578 c0.33854 -0.46875 0.50781 -0.72266 0.50781 -0.76172 z M33.90659375 30.3125 l0.23438 0 l0 -0.27344 c-0.039063 0 -0.11719 0.091152 -0.23438 0.27344 z M28.59379375 30.273400000000002 l0.27344 -0.000038146 c0.039063 0 0.13672 0.11068 0.29297 0.33203 c0.13021 -0.15625 0.19531 -0.26693 0.19531 -0.33203 l0.3125 0 l0 0.039063 c-0.20834 0.29947 -0.3125 0.48828 -0.3125 0.56641 l0.37109 0.60547 l-0.37109 0 c0 -0.10416 -0.078125 -0.22785 -0.23438 -0.37107 c-0.11719 0.23438 -0.21484 0.35807 -0.29297 0.37109 l-0.27344 0 c0.20834 -0.3776 0.34506 -0.57941 0.41016 -0.60545 z M19.57029375 31.6797 l2.5391 0 l0 0.89844 l6.2109 0 l0 1.8359 l3.8477 0 l0 -1.8359 l8.2617 0 l0 1.8359 l-5.6836 0 l0 4.9805 l-6.4258 0 l0 0.60547 l-6.1719 0 c-0.05209 0 -0.078125 -0.032559 -0.078125 -0.097656 l0 -7.3242 l-2.5 0 l0 -0.89844 z M28.32029375 31.6797 l3.8477 0 l0 0.89844 l-3.8477 0 l0 -0.89844 z M40.429593749999995 31.6797 l5.5078 0 l0 0.89844 l-5.5078 0 l0 -0.89844 z M35.410593750000004 34.5898 l0.33201 0 c0.22135 0.61197 0.35807 1.0352 0.41016 1.2695 l-0.23438 0 c-0.05209 0 -0.097656 -0.091152 -0.13672 -0.27344 l-0.37109 0 c-0.065098 0 -0.11066 0.091152 -0.1367 0.27344 l-0.29297 0 l0 -0.039063 c0 -0.026035 0.14322 -0.43619 0.42969 -1.2305 z M36.48459375 34.5898 l0.29297 0.000019073 l0.23438 0.80078 l0.039063 0 c0 -0.05209 0.078125 -0.31902 0.23438 -0.8008 l0.29297 0 c0 0.10416 -0.13021 0.52734 -0.39063 1.2695 l-0.27344 0 c-0.078125 0 -0.22135 -0.42318 -0.42969 -1.2695 z M38.04659375 34.5898 l0.33203 0 l0 1.2695 l-0.33203 0 l0 -1.2695 z M38.925593750000004 34.5898 l0.52734 -0.000019073 c0.40365 0 0.60547 0.23438 0.60547 0.70313 c0 0.32553 -0.20182 0.51434 -0.60547 0.56643 l-0.52734 0 l0 -1.2695 z M39.25759375 34.8828 l0 0.70313 l0.29297 0 c0.039063 0 0.097656 -0.065098 0.17578 -0.19531 l0 -0.33203 c0 -0.039063 -0.058594 -0.097656 -0.17578 -0.17578 l-0.29297 0 z M35.54659375 34.9805 c0 0.039063 -0.032559 0.16275 -0.097656 0.37109 l0.23438 0 c-0.05209 -0.20834 -0.078125 -0.33203 -0.078125 -0.37109 l-0.058594 0 z M41.4648435 12.012 l5.293 0 l1.5625 14.063 l1.4648 0 c0.026035 -0.11719 0.45572 -4.8047 1.2891 -14.063 l6.6992 0 c0.85938 9.5572 1.3086 14.427 1.3477 14.609 l2.207 0 c0.97656 -8.3854 1.5234 -13.255 1.6406 -14.609 l5.293 0 l-2.207 14.844 l-0.41016 0 l0 2.7539 l-4.0039 0 l0 0.70313 l3.1641 0 l0 4.1797 l-3.0273 0 l0 3.6719 l-0.82031 0 l0 1.6016 l-3.3984 0 l0 -9.043 l-2.207 0 l0 -3.2617 c0 -0.28646 -0.29297 -2.9232 -0.87891 -7.9102 l-0.097656 0 l0 0.039063 l-0.72266 6.4844 l0.35156 0 l0 10.02 l-3.2617 0 l0 3.9063 l-4.1797 0 l0 -3.9063 l-1.6016 0 l0 -9.2383 l-1.2891 0 z M43.8476375 27.266 l0.27344 0 l0.19531 0.60547 l0.039063 0 c0.091152 -0.40365 0.16928 -0.60547 0.23438 -0.60547 l0.17578 0 l0 0.058594 c-0.18229 0.63803 -0.29947 0.95703 -0.35156 0.95703 l-0.23438 0 c0 -0.091152 -0.11068 -0.42969 -0.33203 -1.0156 z M43.8086375 28.652 l0.27344 0.000019073 l0 0.68359 c0 0.026035 0.065098 0.071602 0.19531 0.1367 c0.11719 -0.039063 0.17578 -0.084629 0.17578 -0.13672 l0 -0.68359 l0.27344 0 l0 0.50781 c0 0.26041 -0.091152 0.42969 -0.27344 0.50781 l-0.27344 0 c-0.2474 0 -0.37109 -0.16928 -0.37109 -0.50781 l0 -0.50781 z M43.8086375 30.0195 l0.68359 0 c0.05209 0 0.11719 0.065098 0.19531 0.19531 l0 0.17578 l-0.097656 0.13672 c0.05209 0.10416 0.097656 0.27344 0.13672 0.50781 l-0.27344 0 c0 -0.078125 -0.013027 -0.20182 -0.039063 -0.37109 l-0.33203 0 l0 0.37109 l-0.17578 0 c-0.065098 0 -0.097656 -0.032559 -0.097656 -0.097656 l0 -0.91797 z M44.0820375 30.2148 l0 0.23436 l0.27344 0 c0.065098 0 0.097656 -0.032559 0.097656 -0.097656 c-0.026035 -0.065098 -0.039063 -0.11066 -0.039063 -0.1367 l-0.33203 0 z M43.9843375 31.4062 l0.74219 -0.000019073 l0 0.23438 l-0.44922 0 l0 0.13672 l0.3125 0 c0.065098 0.013027 0.097656 0.045586 0.097656 0.097676 l0 0.13672 l-0.41016 0 l0 0.41016 l-0.19531 0 c-0.065098 0 -0.097656 -0.032559 -0.097656 -0.097656 l0 -0.91797 z M44.2773375 32.7344 c0.27344 0.065098 0.41012 0.18881 0.41012 0.37109 l-0.097656 0.039063 l-0.097656 0 l-0.17578 -0.17578 l-0.13672 0 c-0.13021 0.05209 -0.19531 0.15625 -0.19531 0.3125 c0 0.22135 0.097656 0.33203 0.29297 0.33203 c0.11719 -0.05209 0.17578 -0.097656 0.17578 -0.13672 l0 -0.039063 c-0.15625 0 -0.23438 -0.032559 -0.23438 -0.097656 l0 -0.058594 c0.013027 -0.05209 0.045586 -0.078125 0.097676 -0.078125 l0.37109 0 l0 0.58594 l-0.058594 0 c-0.026035 0 -0.071602 -0.013027 -0.1367 -0.039063 l-0.27344 0.039063 l-0.039063 0 c-0.27344 -0.039063 -0.41016 -0.17578 -0.41016 -0.41016 l0 -0.17578 c0 -0.26041 0.16928 -0.41666 0.50781 -0.46875 z M43.8086375 34.1602 l0.27344 0 l0 0.37109 l0.37109 0 l0 -0.37109 l0.27344 0 l0 0.91797 c0 0.065098 -0.032559 0.097656 -0.097656 0.097656 l-0.17578 0 l0 -0.41016 l-0.37109 0 l0 0.41016 l-0.17578 0 c-0.065098 0 -0.097656 -0.032559 -0.097656 -0.097656 l0 -0.91797 z M61.9144375 34.707 l0.27344 0 c0.065098 0.27344 0.097656 0.46225 0.097656 0.56641 l0.039063 0 c0.091152 -0.29947 0.13672 -0.48828 0.13672 -0.56641 l0.19531 0 c0.078125 0 0.13672 0.20182 0.17578 0.60547 l0.058594 0 c0.05209 -0.40365 0.11068 -0.60547 0.17578 -0.60547 l0.17578 0 c-0.14322 0.67709 -0.24738 1.0156 -0.31248 1.0156 l-0.19531 0 l-0.13672 -0.54688 l-0.039063 0 c-0.065098 0.33854 -0.097656 0.52082 -0.097656 0.54686 l-0.27344 0 c-0.05209 -0.26041 -0.14324 -0.59895 -0.27346 -1.0156 z M61.9534375 36.0937 l0.23439 0 c0.065098 0 0.1302 0.091152 0.19529 0.27344 c0.05209 0 0.11068 -0.091152 0.17578 -0.27344 l0.27344 0 l0 0.039063 l-0.27344 0.42969 c0 0.013027 0.11068 0.17578 0.33203 0.48828 l0 0.058594 l-0.23438 0 c-0.078125 0 -0.15625 -0.11068 -0.23438 -0.33203 c-0.15625 0.22135 -0.2474 0.33203 -0.27344 0.33203 l-0.23438 0 c0 -0.026035 0.11068 -0.19531 0.33203 -0.50781 l0 -0.039063 l-0.29297 -0.42969 l0 -0.039063 z"></path>
    </g>
    <g id="SvgjsG7601"
       transform="matrix(0.8383961319923401,0,0,0.8383961319923401,19.20609731262545,88.67104448030723)"
       fill="#137dc5">
        <path d="M5.6738 13.6328 l1.1133 0 c-0.17578 2.3535 1.4258 4.1211 5.9375 1.2207 l1.4648 0 l-0.91797 3.9844 c-4.9512 2.8516 -12.295 1.9922 -11.221 -5.2051 l-1.1035 0 c0.058594 -0.26367 0.11719 -0.57617 0.19531 -0.91797 c0.99609 -4.3652 4.3262 -7.5391 8.9648 -7.5391 c2.5586 0 4.0332 0.73242 4.9121 1.3379 l-0.94727 4.082 l-1.5723 0 c-3.5352 -3.8086 -6.5918 0.078125 -6.8262 3.0371 z M31.772867187499997 12.8418 c-0.078125 0.3125 -0.16602 0.625 -0.2832 0.94727 l1.0645 0 c-1.2402 3.877 -4.3945 6.6895 -8.7207 6.6895 c-4.4629 0 -6.2012 -2.8125 -5.6348 -6.6895 l-1.0352 0 c0.039063 -0.32227 0.087891 -0.63477 0.15625 -0.94727 c1.0352 -4.4629 4.2676 -7.6563 8.9648 -7.6563 c4.5996 0 6.4941 3.2227 5.4883 7.6563 z M27.4848671875 13.789100000000001 l-1.0547 0 c0.097656 -0.32227 0.19531 -0.63477 0.26367 -0.9668 c1.2402 -5.3613 -3.0859 -5.2051 -4.2969 0.019531 c-0.068359 0.3418 -0.11719 0.6543 -0.16602 0.94727 l1.0547 0 c-0.50781 4.082 2.8223 3.9941 4.1992 0 z M48.750468749999996 13.6328 l1.0938 0 c-1.0645 3.1445 -3.7793 5.6152 -7.0801 6.1914 c-2.4316 0.3418 -5.1758 0.17578 -7.6465 0.17578 l1.4648 -6.3672 l-1.084 0 l1.8848 -8.2031 c1.9531 0 6.8945 -0.30273 8.8477 0.52734 c2.7051 1.1621 3.3789 4.1211 2.7539 6.7578 c-0.048828 0.3125 -0.12695 0.625 -0.23438 0.91797 z M41.48436875 9.033 l-1.0547 4.5996 l1.084 0 l-0.63477 2.7344 c2.1191 0 3.3008 -0.80078 3.9551 -2.7344 l-1.084 0 c0.10742 -0.26367 0.18555 -0.57617 0.27344 -0.94727 c0.60547 -2.5293 -0.13672 -3.6523 -2.5391 -3.6523 z M53.7744109375 13.6719 l-0.99609 0 l1.9141 -8.2422 l10.459 0 l-0.83984 3.7012 l-5.5762 0 l-0.29297 1.25 l5.127 0 l-0.75195 3.291 l0.99609 0 l-0.087891 0.39063 l-5.1367 0 l-0.51758 2.2852 l5.5566 0 l-0.83984 3.6914 l-10.479 0 z M79.668046875 13.3594 c0.56641 2.0508 -1.1328 4.4727 -2.7051 5.5371 c-3.0859 2.0215 -7.1582 1.6992 -10.313 0.078125 l0.91797 -4.0625 l1.5137 0 c0.19531 2.0996 4.8926 2.9688 5.3711 0.89844 c0.23438 -1.0254 -3.4473 -1.3086 -4.6777 -2.2754 c-0.068359 -0.058594 -0.14648 -0.11719 -0.20508 -0.17578 l-0.89844 0 c-0.97656 -0.91797 -1.0645 -2.1387 -0.78125 -3.4082 c1.1914 -5.2051 8.2617 -5.7227 12.344 -3.6621 l-0.9082 3.9551 l-1.5234 0 c0.097656 -1.4844 -4.3945 -2.5 -4.8145 -0.71289 c-0.2832 1.3867 4.2676 0.97656 5.5273 3.1738 c0.10742 0.19531 0.19531 0.42969 0.25391 0.6543 l0.89844 0 z M95.7768359375 13.6328 l1.0938 0 c-1.0645 3.1445 -3.7793 5.6152 -7.0801 6.1914 c-2.4316 0.3418 -5.1758 0.17578 -7.6465 0.17578 l1.4648 -6.3672 l-1.084 0 l1.8848 -8.2031 c1.9531 0 6.8945 -0.30273 8.8477 0.52734 c2.7051 1.1621 3.3789 4.1211 2.7539 6.7578 c-0.048828 0.3125 -0.12695 0.625 -0.23438 0.91797 z M88.5107359375 9.033 l-1.0547 4.5996 l1.084 0 l-0.63477 2.7344 c2.1191 0 3.3008 -0.80078 3.9551 -2.7344 l-1.084 0 c0.10742 -0.26367 0.18555 -0.57617 0.27344 -0.94727 c0.60547 -2.5293 -0.13672 -3.6523 -2.5391 -3.6523 z M114.326578125 12.8418 c-0.078125 0.3125 -0.16602 0.625 -0.2832 0.94727 l1.0645 0 c-1.2402 3.877 -4.3945 6.6895 -8.7207 6.6895 c-4.4629 0 -6.2012 -2.8125 -5.6348 -6.6895 l-1.0352 0 c0.039063 -0.32227 0.087891 -0.63477 0.15625 -0.94727 c1.0352 -4.4629 4.2676 -7.6563 8.9648 -7.6563 c4.5996 0 6.4941 3.2227 5.4883 7.6563 z M110.038578125 13.789100000000001 l-1.0547 0 c0.097656 -0.32227 0.19531 -0.63477 0.26367 -0.9668 c1.2402 -5.3613 -3.0859 -5.2051 -4.2969 0.019531 c-0.068359 0.3418 -0.11719 0.6543 -0.16602 0.94727 l1.0547 0 c-0.50781 4.082 2.8223 3.9941 4.1992 0 z M136.4501796875 13.3594 l-3.1445 6.6797 l-5.0195 0 l-0.15625 -5.459 c-0.86914 1.7871 -1.7773 3.6328 -2.5977 5.459 l-5.0293 0 l-0.097656 -6.6797 l-0.88867 0 l-0.14648 -7.9785 l5.0977 0 l-0.13672 5.7715 c0.88867 -1.9043 1.8164 -3.8574 2.7344 -5.7715 l4.6973 0 l0 5.7715 c0.87891 -1.9043 1.709 -3.8574 2.5684 -5.7715 l5 0 l-3.7695 7.9785 l0.88867 0 z M155.478921875 12.8418 c-0.078125 0.3125 -0.16602 0.625 -0.2832 0.94727 l1.0645 0 c-1.2402 3.877 -4.3945 6.6895 -8.7207 6.6895 c-4.4629 0 -6.2012 -2.8125 -5.6348 -6.6895 l-1.0352 0 c0.039063 -0.32227 0.087891 -0.63477 0.15625 -0.94727 c1.0352 -4.4629 4.2676 -7.6563 8.9648 -7.6563 c4.5996 0 6.4941 3.2227 5.4883 7.6563 z M151.19092187500002 13.789100000000001 l-1.0547 0 c0.097656 -0.32227 0.19531 -0.63477 0.26367 -0.9668 c1.2402 -5.3613 -3.0859 -5.2051 -4.2969 0.019531 c-0.068359 0.3418 -0.11719 0.6543 -0.16602 0.94727 l1.0547 0 c-0.50781 4.082 2.8223 3.9941 4.1992 0 z M160.2978234375 13.3594 l-0.88867 0 l1.8164 -7.9785 c1.6992 0 4.7656 -0.16602 7.1875 0.15625 c2.1387 0.3125 4.209 1.1035 3.8477 3.6719 c-0.20508 1.5527 -1.3965 3.1445 -2.6855 4.1504 l0.87891 0 c-0.23438 0.17578 -0.46875 0.36133 -0.72266 0.48828 l3.3398 6.1914 l-5.8594 0 l-2.4414 -4.7754 l-1.084 4.7754 l-4.9219 0 z M165.3369234375 8.994 l-0.5957 2.5195 c2.3535 0 3.6719 -2.5195 0.5957 -2.5195 z M186.72890625 13.6719 l2.832 6.3672 l-5.791 0 l-1.8359 -4.4043 l-1.0156 4.4043 l-4.9023 0 l1.4648 -6.3672 l-0.98633 0 l1.8848 -8.2422 l4.9121 0 l-0.94727 4.1016 c1.2793 -1.3672 2.5293 -2.7539 3.7988 -4.1016 l5.6445 0 l-6.6602 6.8359 l0.5957 1.4063 l1.0059 0 z"></path>
    </g>
</svg>
