<?xml version="1.0" standalone="no"?>
<!DOCTYPE svg PUBLIC "-//W3C//DTD SVG 20010904//EN"
 "http://www.w3.org/TR/2001/REC-SVG-20010904/DTD/svg10.dtd">
<svg version="1.0"
    xmlns="http://www.w3.org/2000/svg" fill="transparent" width="720.000000pt" height="1310.000000pt" viewBox="360 0 720.000000 1310.000000" preserveAspectRatio="xMidYMid meet">

    <g transform="translate(0.000000,1563.000000) scale(0.100000,-0.100000)" fill="#000000" stroke="none">
        <path d="M7246 15288 c-9 -176 -31 -385 -57 -538 -23 -144 -31 -175 -65 -285
-24 -75 -30 -84 -104 -152 -141 -132 -223 -306 -276 -593 -26 -137 -26 -535
-1 -672 44 -238 111 -425 200 -558 45 -68 147 -168 194 -192 l42 -21 -5 -4713
-5 -4714 25 -25 c14 -14 34 -25 46 -25 l20 0 0 6310 c0 3471 -2 6310 -4 6310
-2 0 -6 -60 -10 -132z"/>
        <path d="M5540 13907 c0 -4 13 -34 30 -67 90 -179 247 -574 299 -751 46 -161
47 -168 16 -244 -44 -111 -58 -211 -52 -365 7 -151 29 -267 80 -427 101 -312
259 -575 468 -779 103 -101 210 -175 297 -207 81 -29 212 -29 267 0 96 51 173
172 196 306 17 102 6 367 -20 479 -62 270 -230 626 -377 799 -87 103 -238 247
-303 290 -77 50 -166 85 -236 93 -36 3 -50 15 -136 105 -139 146 -300 378
-480 691 -27 47 -49 81 -49 77z"/>
        <path d="M8161 12368 c-24 -56 -586 -1319 -613 -1378 -45 -99 -200 -446 -208
-465 -8 -20 -4 -20 220 -17 l228 3 65 162 c37 89 74 181 84 204 l18 43 440 0
441 0 84 -205 84 -205 232 0 233 0 -39 88 c-22 48 -212 474 -424 947 l-384
860 -221 3 -222 2 -18 -42z m389 -757 c78 -190 144 -351 147 -358 4 -10 -53
-13 -296 -13 -183 0 -301 4 -301 9 0 10 63 164 220 544 41 97 77 174 80 170 4
-5 71 -163 150 -352z"/>
        <path d="M5139 12065 c230 -325 366 -543 459 -733 l65 -134 -17 -86 c-20 -106
-20 -145 -1 -270 19 -128 62 -258 134 -407 48 -100 142 -260 181 -308 5 -7 36
-46 69 -87 78 -99 237 -255 336 -330 99 -75 257 -154 350 -176 89 -21 206 -14
261 14 40 21 98 77 126 123 51 82 64 281 29 439 -117 520 -576 1082 -1008
1231 -32 11 -100 23 -152 26 -91 6 -97 8 -160 51 -165 113 -369 307 -569 542
-143 167 -156 181 -103 105z"/>
        <path d="M5191 10433 c196 -279 369 -563 439 -722 32 -73 32 -75 19 -135 -17
-73 -16 -247 0 -335 40 -208 176 -494 339 -711 71 -94 247 -277 332 -345 135
-107 276 -183 398 -211 79 -19 188 -14 248 11 56 23 118 88 151 159 27 58 28
67 28 211 0 124 -4 165 -23 236 -82 311 -281 641 -534 885 -217 210 -420 319
-613 331 -78 5 -96 9 -140 37 -141 88 -361 294 -572 534 -69 78 -128 142 -130
142 -2 0 24 -39 58 -87z"/>
        <path d="M8190 10184 c-283 -62 -460 -205 -524 -423 -20 -68 -21 -227 -2 -299
20 -72 60 -138 123 -198 91 -88 229 -146 503 -214 249 -61 334 -90 386 -129
27 -20 54 -48 61 -61 15 -29 17 -99 4 -132 -15 -39 -72 -87 -130 -109 -69 -27
-295 -38 -394 -20 -114 21 -283 81 -371 132 -48 27 -88 49 -90 49 -2 0 -36
-73 -76 -162 l-73 -162 29 -23 c43 -34 178 -98 270 -126 172 -54 232 -62 479
-62 209 0 238 2 315 23 142 39 241 92 330 180 124 123 165 230 158 412 -5 118
-29 188 -93 266 -100 121 -234 180 -644 280 -188 46 -293 86 -325 125 -63 74
-55 164 20 236 57 55 120 74 258 81 171 7 338 -29 489 -105 38 -19 73 -33 79
-31 6 2 39 76 74 163 l64 160 -22 17 c-38 29 -180 85 -289 114 -96 25 -121 27
-324 30 -162 2 -237 -1 -285 -12z"/>
        <path d="M5176 8895 c212 -301 384 -582 450 -735 l36 -83 -15 -76 c-70 -341
140 -842 512 -1225 164 -168 321 -277 485 -339 69 -25 96 -30 181 -31 85 -1
107 3 147 22 70 35 134 110 158 189 28 90 27 249 -1 381 -97 453 -500 985
-892 1177 -112 55 -188 75 -282 75 -69 0 -73 1 -145 51 -154 106 -362 304
-567 539 -50 58 -103 119 -117 135 -15 17 8 -19 50 -80z"/>
        <path d="M7530 6980 l0 -950 215 0 215 0 2 574 3 575 470 -574 470 -574 183 0
182 -1 0 950 0 950 -215 0 -215 0 -2 -575 -3 -576 -470 576 -470 575 -182 0
-183 0 0 -950z"/>
        <path d="M5153 7370 c194 -272 366 -547 450 -720 55 -113 60 -144 39 -235 -14
-65 -8 -221 14 -315 67 -297 250 -622 488 -868 197 -205 383 -327 568 -374 93
-23 186 -21 251 7 60 25 121 88 153 158 28 60 29 67 29 217 -1 137 -4 166 -28
254 -79 285 -248 571 -480 812 -241 250 -476 384 -673 384 -85 0 -99 7 -244
118 -101 78 -359 335 -484 482 -119 139 -138 158 -83 80z"/>
    </g>
</svg>
